<mxfile host="app.diagrams.net" modified="2022-04-01T19:51:29.026Z" agent="5.0 (Windows NT 10.0; Win64; x64) AppleWebKit/537.36 (KHTML, like Gecko) Chrome/99.0.4844.84 Safari/537.36" etag="LDEbMlU18nlE6E1Pib-X" version="17.4.0" type="github">
  <diagram id="3njujTorpQs4fORfyofw" name="Page-1">
    <mxGraphModel dx="1102" dy="614" grid="1" gridSize="10" guides="1" tooltips="1" connect="1" arrows="1" fold="1" page="1" pageScale="1" pageWidth="827" pageHeight="1169" math="0" shadow="0">
      <root>
        <mxCell id="0" />
        <mxCell id="1" parent="0" />
        <mxCell id="hsL9XAnFpjKKZIZdOpRt-7" style="edgeStyle=orthogonalEdgeStyle;rounded=0;orthogonalLoop=1;jettySize=auto;html=1;entryX=0.5;entryY=0;entryDx=0;entryDy=0;" edge="1" parent="1" source="hsL9XAnFpjKKZIZdOpRt-1" target="hsL9XAnFpjKKZIZdOpRt-2">
          <mxGeometry relative="1" as="geometry" />
        </mxCell>
        <mxCell id="hsL9XAnFpjKKZIZdOpRt-1" value="BaÅŸla" style="ellipse;whiteSpace=wrap;html=1;" vertex="1" parent="1">
          <mxGeometry x="354" y="10" width="120" height="80" as="geometry" />
        </mxCell>
        <mxCell id="hsL9XAnFpjKKZIZdOpRt-8" style="edgeStyle=orthogonalEdgeStyle;rounded=0;orthogonalLoop=1;jettySize=auto;html=1;" edge="1" parent="1" source="hsL9XAnFpjKKZIZdOpRt-2" target="hsL9XAnFpjKKZIZdOpRt-4">
          <mxGeometry relative="1" as="geometry" />
        </mxCell>
        <mxCell id="hsL9XAnFpjKKZIZdOpRt-2" value="Sayi1" style="shape=parallelogram;perimeter=parallelogramPerimeter;whiteSpace=wrap;html=1;fixedSize=1;" vertex="1" parent="1">
          <mxGeometry x="354" y="130" width="120" height="60" as="geometry" />
        </mxCell>
        <mxCell id="hsL9XAnFpjKKZIZdOpRt-9" style="edgeStyle=orthogonalEdgeStyle;rounded=0;orthogonalLoop=1;jettySize=auto;html=1;" edge="1" parent="1" source="hsL9XAnFpjKKZIZdOpRt-4" target="hsL9XAnFpjKKZIZdOpRt-5">
          <mxGeometry relative="1" as="geometry" />
        </mxCell>
        <mxCell id="hsL9XAnFpjKKZIZdOpRt-4" value="Sayi2" style="shape=parallelogram;perimeter=parallelogramPerimeter;whiteSpace=wrap;html=1;fixedSize=1;" vertex="1" parent="1">
          <mxGeometry x="354" y="240" width="120" height="60" as="geometry" />
        </mxCell>
        <mxCell id="hsL9XAnFpjKKZIZdOpRt-10" style="edgeStyle=orthogonalEdgeStyle;rounded=0;orthogonalLoop=1;jettySize=auto;html=1;entryX=0.5;entryY=0;entryDx=0;entryDy=0;" edge="1" parent="1" source="hsL9XAnFpjKKZIZdOpRt-5" target="hsL9XAnFpjKKZIZdOpRt-6">
          <mxGeometry relative="1" as="geometry" />
        </mxCell>
        <mxCell id="hsL9XAnFpjKKZIZdOpRt-5" value="Sayi1+Sayi2" style="shape=document;whiteSpace=wrap;html=1;boundedLbl=1;" vertex="1" parent="1">
          <mxGeometry x="354" y="360" width="120" height="80" as="geometry" />
        </mxCell>
        <mxCell id="hsL9XAnFpjKKZIZdOpRt-6" value="Son" style="ellipse;whiteSpace=wrap;html=1;" vertex="1" parent="1">
          <mxGeometry x="354" y="480" width="120" height="80" as="geometry" />
        </mxCell>
      </root>
    </mxGraphModel>
  </diagram>
</mxfile>
